# AST/ASF file generated using VICON BodyLanguage
# -----------------------------------------------
:version 1.10
:name VICON
:units
  mass 1.0
  length 0.45
  angle deg
:documentation
   .ast/.asf automatically generated from VICON data using
   VICON BodyBuilder and BodyLanguage model FoxedUp or BRILLIANT.MOD
:root
   order TX TY TZ RX RY RZ
   axis XYZ
   position 0 0 0  
   orientation 0 0 0 
:bonedata
  begin
     id 1 
     name lhipjoint
     direction 0.693937 -0.600361 0.397515 
     length 2.37164 
     axis 0 0 0  XYZ
  end
  begin
     id 2 
     name lfemur
     direction 0.34202 -0.939693 0  
     length 6.18497  
     axis 0 0 20  XYZ
    dof rx ry rz
    limits (-160.0 20.0)
           (-70.0 70.0)
           (-60.0 70.0)
  end
  begin
     id 3 
     name ltibia
     direction 0.34202 -0.939693 0   
     length 6.91601   
     axis 0 0 20   XYZ
    dof rx
    limits (-10.0 170.0)
  end
  begin
     id 4 
     name lfoot
     direction 0.0978718 -0.2689 0.958182   
     length 1.81453   
     axis -90 7.62852e-016 20   XYZ
    dof rx rz
    limits (-45.0 90.0)
           (-70.0 20.0)
  end
  begin
     id 5 
     name ltoes
     direction 1.53569e-011 -4.21951e-011 1   
     length 0.912052   
     axis -90 7.62852e-016 20   XYZ
    dof rx
    limits (-90.0 20.0)
  end
  begin
     id 6 
     name rhipjoint
     direction -0.643996 -0.637876 0.422354   
     length 2.23216  
     axis 0 0 0  XYZ 
  end
  begin
     id 7 
     name rfemur
     direction -0.34202 -0.939693 0   
     length 6.15404   
     axis 0 0 -20   XYZ
    dof rx ry rz
    limits (-160.0 20.0)
           (-70.0 70.0)
           (-70.0 60.0)
  end
  begin
     id 8 
     name rtibia
     direction -0.34202 -0.939693 0   
     length 6.86744   
     axis 0 0 -20   XYZ
    dof rx
    limits (-10.0 170.0)
 end
 begin
     id 9 
     name rfoot
     direction -0.118701 -0.326127 0.937844   
     length 1.9243  
     axis -90 -7.62852e-016 -20   XYZ
    dof rx rz
    limits (-45.0 90.0)
           (-20.0 70.0)
  end
  begin
     id 10 
     name rtoes
     direction -1.5356e-011 -4.2181e-011 1   
     length 0.958865   
     axis -90 -7.62852e-016 -20   XYZ
    dof rx
    limits (-90.0 20.0)
  end
  begin
     id 11 
     name lowerback
     direction 0.0310826 0.968686 -0.246334   
     length 2.00021   
     axis 0 0 0   XYZ
    dof rx ry rz
    limits (-20.0 45.0)
           (-30.0 30.0)
           (-30.0 30.0)
  end
  begin
     id 12 
     name upperback
     direction -0.0152834 0.999474 -0.0286152   
     length 2.03728   
     axis 0 0 0   XYZ
    dof rx ry rz
    limits (-20.0 45.0)
           (-30.0 30.0)
           (-30.0 30.0)
  end
  begin
     id 13 
     name thorax
     direction -0.0323701 0.996236 0.0804149   
     length 2.16   
     axis 0 0 0   XYZ
    dof rx ry rz
    limits (-20.0 45.0)
           (-30.0 30.0)
           (-30.0 30.0)
  end
  begin
     id 14 
     name lowerneck
     direction 0.0307935 0.982251 0.185027   
     length 1.43558   
     axis 0 0 0   XYZ
    dof rx ry rz
    limits (-20.0 45.0)
           (-30.0 30.0)
           (-30.0 30.0)
  end
  begin
     id 15 
     name upperneck
     direction -0.0927153 0.994775 0.0427454   
     length 1.44603   
     axis 0 0 0   XYZ
    dof rx ry rz
    limits (-20.0 45.0)
           (-30.0 30.0)
           (-30.0 30.0)
  end
  begin
     id 16
     name head
     direction -0.0341265 0.999406 -0.00472033  
     length 1.45931  
     axis 0 0 0   XYZ
    dof rx ry rz
    limits (-20.0 45.0)
           (-30.0 30.0)
           (-30.0 30.0)
  end
  begin
     id 17 
     name lclavicle
     direction 0.820755 0.555306 -0.134151  
     length 2.66075  
     axis 0 0 0   XYZ
    dof ry rz
    limits (-20.0 10.0)
           (0.0 20.0)
  end
  begin
     id 18 
     name lhumerus
     direction 1 -4.48971e-011 5.24853e-027   
     length 5.0546   
     axis -180 -30 -90   XYZ
    dof rx ry rz
    limits (-60.0 90.0)
           (-90.0 90.0)
           (-90.0 90.0)
  end
  begin
     id 19
     name lradius
     direction 1 -4.48971e-011 2.76575e-028   
     length 3.39013   
     axis -180 -30 -90   XYZ
    dof rx
    limits (-10.0 170.0)
  end
  begin
     id 20
     name lwrist
     direction 1 -4.48939e-011 -2.27826e-027   
     length 1.69507   
     axis 2.17013e-015 90 90   XYZ
    dof ry
    limits (-180.0 0.0)
 end
  begin
     id 21 
     name lhand
     direction 1 -4.49009e-011 -4.55652e-027   
     length 0.572425   
     axis 2.90745e-015 90 90   XYZ
    dof rx rz
    limits (-90.0 90.0)
           (-45.0 45.0)
  end
  begin
     id 22 
     name lfingers
     direction 1 -4.48955e-011 -9.11303e-027   
     length 0.461504   
     axis 5.81489e-015 90 90   XYZ
    dof rx
    limits (0.0 90.0)
  end
  begin
     id 23
     name lthumb
     direction 0.707107 -6.34929e-011 0.707107   
     length 0.66263   
     axis -90 45 2.85299e-015   XYZ
    dof rx rz
    limits (-45.0 45.0)
           (-45.0 45.0)
  end
  begin
     id 24 
     name rclavicle
     direction -0.754477 0.632921 -0.173712   
     length 2.73081  
     axis 0 0 0   XYZ 
    dof ry rz
    limits (-10.0 20.0)
           (-20.0 0.0)
  end
  begin
     id 25 
     name rhumerus
     direction -1 -4.48969e-011 5.1496e-027  
     length 5.0701   
     axis -180 30 90   XYZ
    dof rx ry rz
    limits (-90.0 60.0)
           (-90.0 90.0)
           (-90.0 90.0)
  end
  begin
     id 26 
     name rradius
     direction -1 -4.48967e-011 -7.15624e-028   
     length 3.14957   
     axis -180 30 90   XYZ
    dof rx
    limits (-10.0 170.0)
  end
  begin
     id 27 
     name rwrist
     direction -1 -4.48938e-011 -2.27826e-027   
     length 1.57479   
     axis 2.17013e-015 -90 -90   XYZ
    dof ry
    limits (-180.0 0.0)
  end
  begin
     id 28
     name rhand
     direction -1 -4.49008e-011 -4.55652e-027   
     length 0.718191   
     axis 2.90745e-015 -90 -90   XYZ
    dof rx rz
    limits (-90.0 90.0)
           (-45.0 45.0)
  end
  begin
     id 29
     name rfingers
     direction -1 -4.48953e-011 -9.11303e-027   
     length 0.579024   
     axis 5.81489e-015 -90 -90   XYZ
    dof rx
    limits (0.0 90.0)
  end
  begin
     id 30
     name rthumb
     direction -0.707107 -6.34937e-011 0.707107   
     length 0.831366   
     axis -90 -45 -2.85299e-015   XYZ
    dof rx rz
    limits (-45.0 45.0)
           (-45.0 45.0)
  end
:hierarchy
  begin
    root lhipjoint rhipjoint lowerback
    lhipjoint lfemur
    lfemur ltibia
    ltibia lfoot
    lfoot ltoes
    rhipjoint rfemur
    rfemur rtibia
    rtibia rfoot
    rfoot rtoes
    lowerback upperback
    upperback thorax
    thorax lowerneck lclavicle rclavicle
    lowerneck upperneck
    upperneck head
    lclavicle lhumerus
    lhumerus lradius
    lradius lwrist
    lwrist lhand lthumb
    lhand lfingers
    rclavicle rhumerus
    rhumerus rradius
    rradius rwrist
    rwrist rhand rthumb
    rhand rfingers
  end

#!OML:ASF H:\Male1\Project 1\Capture day 1\Session 1\Male1.ASF
:FULLY-SPECIFIED
:DEGREES
63
root 8.00798 15.5652 2.11802 177.626 2.63295 -180.49
lowerback 6.23504 0.728111 -0.733547
upperback 2.71523 1.09025 -1.14546
thorax -0.690328 0.620878 -0.838571
lowerneck -8.20404 2.97754 4.88242
upperneck 14.6861 3.74088 0.29525
head 5.88319 2.2698 -0.409573
rclavicle 1.63997e-015 -7.15625e-015
rhumerus -34.1924 3.00627 -89.3498
rradius 31.4622
rwrist -17.4096
rhand -17.9208 0.301696
rfingers 7.12502
rthumb 8.3468 -29.5134
lclavicle 1.63997e-015 -7.15625e-015
lhumerus -30.4046 -1.42525 88.6653
lradius 35.5878
lwrist 13.1495
lhand -29.0168 9.04225
lfingers 7.12502
lthumb -2.36795 39.0089
rfemur -3.01682 17.4422 22.9577
rtibia 22.4489
rfoot -21.7146 -30.7805
rtoes -31.4851
lfemur -1.00118 -18.8134 -22.9122
ltibia 20.1567
lfoot -19.0574 25.1859
ltoes -7.87581
64
root 8.00648 15.5628 2.11543 177.631 2.75422 -180.489
lowerback 6.28773 0.758913 -0.702236
upperback 2.71466 1.13327 -1.1746
thorax -0.718589 0.643316 -0.889945
lowerneck -8.2165 3.01503 5.00825
upperneck 14.674 3.78937 0.174897
head 5.88759 2.28999 -0.464012
rclavicle 4.82053e-015 5.56597e-015
rhumerus -34.2559 2.85349 -89.5106
rradius 31.7567
rwrist -17.517
rhand -17.8861 0.274799
rfingers 7.12502
rthumb 8.38027 -29.539
lclavicle 4.82053e-015 5.56597e-015
lhumerus -30.5175 -1.40571 88.7618
lradius 36.0839
lwrist 13.5166
lhand -29.1515 9.16542
lfingers 7.12502
lthumb -2.49806 39.1305
rfemur -3.08166 17.3703 22.9284
rtibia 22.5053
rfoot -21.253 -30.8317
rtoes -32.8858
lfemur -1.01081 -18.6398 -22.9005
ltibia 20.1789
lfoot -18.9957 25.1643
ltoes -8.29402
65
root 8.00498 15.5609 2.1129 177.637 2.86668 -180.479
lowerback 6.35499 0.777978 -0.685543
upperback 2.71261 1.15942 -1.18041
thorax -0.757308 0.656903 -0.908365
lowerneck -8.23315 3.06011 5.11683
upperneck 14.6428 3.85043 0.0379582
head 5.88707 2.31286 -0.520083
rclavicle 8.94531e-015 -2.3059e-014
rhumerus -34.3804 2.82383 -89.6736
rradius 32.1786
rwrist -17.7471
rhand -17.843 0.226378
rfingers 7.12502
rthumb 8.42189 -29.5857
lclavicle 8.94531e-015 -2.3059e-014
lhumerus -30.6522 -1.50176 88.8981
lradius 36.6034
lwrist 13.7978
lhand -29.0495 9.31327
lfingers 7.12502
lthumb -2.39956 39.2795
rfemur -3.13286 17.3079 22.9081
rtibia 22.5597
rfoot -21.067 -30.7809
rtoes -33.7285
lfemur -1.02982 -18.4673 -22.8717
ltibia 20.2122
lfoot -18.9723 25.1121
ltoes -8.65519
66
root 8.00356 15.5598 2.11057 177.634 2.96428 -180.464
lowerback 6.44329 0.782776 -0.687031
upperback 2.71768 1.16598 -1.16512
thorax -0.80136 0.660654 -0.893915
lowerneck -8.24026 3.11702 5.22048
upperneck 14.5683 3.93013 -0.132228
head 5.87239 2.33997 -0.585044
rclavicle 1.14798e-014 7.55382e-015
rhumerus -34.544 2.93757 -89.839
rradius 32.6898
rwrist -18.0581
rhand -17.7991 0.190359
rfingers 7.12502
rthumb 8.46423 -29.62
lclavicle 1.14798e-014 7.55382e-015
lhumerus -30.8051 -1.72019 89.0751
lradius 37.1349
lwrist 14.0475
lhand -28.7864 9.4658
lfingers 7.12502
lthumb -2.14539 39.4348
rfemur -3.1578 17.273 22.895
rtibia 22.624
rfoot -21.2869 -30.5881
rtoes -33.7584
lfemur -1.03638 -18.3039 -22.8353
ltibia 20.2378
lfoot -19.0052 25.0231
ltoes -8.85574
67
root 8.00221 15.5599 2.10833 177.619 3.04172 -180.447
lowerback 6.55454 0.777023 -0.691914
upperback 2.73536 1.15945 -1.14208
thorax -0.845518 0.658336 -0.868989
lowerneck -8.23045 3.18037 5.31587
upperneck 14.4373 4.01909 -0.317522
head 5.83761 2.36787 -0.653605
rclavicle 5.41688e-015 -2.3059e-014
rhumerus -34.7271 3.15671 -90.0055
rradius 33.2535
rwrist -18.4108
rhand -17.7767 0.184974
rfingers 7.12502
rthumb 8.48582 -29.6245
lclavicle 5.41688e-015 -2.3059e-014
lhumerus -30.9727 -2.06008 89.2809
lradius 37.6689
lwrist 14.2812
lhand -28.4312 9.59892
lfingers 7.12502
lthumb -1.80233 39.5711
rfemur -3.15588 17.2568 22.8862
rtibia 22.7047
rfoot -21.798 -30.2797
rtoes -33.1778
lfemur -1.02396 -18.1402 -22.7966
ltibia 20.2492
lfoot -19.0697 24.9002
ltoes -8.9484
